<svg xmlns="http://www.w3.org/2000/svg" viewBox="0 0 64 64" width="64" height="64"><rect width="64" height="64" rx="14" fill="#0d0e13"></rect><rect x="18" y="16" width="4" height="4" fill="#57f2a4"></rect><rect x="42" y="16" width="4" height="4" fill="#57f2a4"></rect><rect x="22" y="20" width="4" height="4" fill="#57f2a4"></rect><rect x="38" y="20" width="4" height="4" fill="#57f2a4"></rect><rect x="18" y="24" width="4" height="4" fill="#57f2a4"></rect><rect x="22" y="24" width="4" height="4" fill="#57f2a4"></rect><rect x="26" y="24" width="4" height="4" fill="#57f2a4"></rect><rect x="30" y="24" width="4" height="4" fill="#57f2a4"></rect><rect x="34" y="24" width="4" height="4" fill="#57f2a4"></rect><rect x="38" y="24" width="4" height="4" fill="#57f2a4"></rect><rect x="42" y="24" width="4" height="4" fill="#57f2a4"></rect><rect x="14" y="28" width="4" height="4" fill="#57f2a4"></rect><rect x="18" y="28" width="4" height="4" fill="#57f2a4"></rect><rect x="26" y="28" width="4" height="4" fill="#57f2a4"></rect><rect x="30" y="28" width="4" height="4" fill="#57f2a4"></rect><rect x="34" y="28" width="4" height="4" fill="#57f2a4"></rect><rect x="42" y="28" width="4" height="4" fill="#57f2a4"></rect><rect x="46" y="28" width="4" height="4" fill="#57f2a4"></rect><rect x="10" y="32" width="4" height="4" fill="#57f2a4"></rect><rect x="14" y="32" width="4" height="4" fill="#57f2a4"></rect><rect x="18" y="32" width="4" height="4" fill="#57f2a4"></rect><rect x="22" y="32" width="4" height="4" fill="#57f2a4"></rect><rect x="26" y="32" width="4" height="4" fill="#57f2a4"></rect><rect x="30" y="32" width="4" height="4" fill="#57f2a4"></rect><rect x="34" y="32" width="4" height="4" fill="#57f2a4"></rect><rect x="38" y="32" width="4" height="4" fill="#57f2a4"></rect><rect x="42" y="32" width="4" height="4" fill="#57f2a4"></rect><rect x="46" y="32" width="4" height="4" fill="#57f2a4"></rect><rect x="50" y="32" width="4" height="4" fill="#57f2a4"></rect><rect x="10" y="36" width="4" height="4" fill="#57f2a4"></rect><rect x="18" y="36" width="4" height="4" fill="#57f2a4"></rect><rect x="22" y="36" width="4" height="4" fill="#57f2a4"></rect><rect x="26" y="36" width="4" height="4" fill="#57f2a4"></rect><rect x="30" y="36" width="4" height="4" fill="#57f2a4"></rect><rect x="34" y="36" width="4" height="4" fill="#57f2a4"></rect><rect x="38" y="36" width="4" height="4" fill="#57f2a4"></rect><rect x="42" y="36" width="4" height="4" fill="#57f2a4"></rect><rect x="50" y="36" width="4" height="4" fill="#57f2a4"></rect><rect x="10" y="40" width="4" height="4" fill="#57f2a4"></rect><rect x="18" y="40" width="4" height="4" fill="#57f2a4"></rect><rect x="42" y="40" width="4" height="4" fill="#57f2a4"></rect><rect x="50" y="40" width="4" height="4" fill="#57f2a4"></rect><rect x="22" y="44" width="4" height="4" fill="#57f2a4"></rect><rect x="26" y="44" width="4" height="4" fill="#57f2a4"></rect><rect x="34" y="44" width="4" height="4" fill="#57f2a4"></rect><rect x="38" y="44" width="4" height="4" fill="#57f2a4"></rect></svg>